<svg width="195" height="53" viewBox="0 0 195 53" fill="none" xmlns="http://www.w3.org/2000/svg">
<path d="M60.4844 39.722C60.4844 38.1826 60.7758 36.6569 61.3724 35.145C61.9691 33.633 62.8433 32.2586 64.0089 31.0215C65.1745 29.7845 66.5898 28.7949 68.255 28.0527C69.9201 27.3105 71.7933 26.9531 73.8748 26.9531C76.3863 26.9531 78.5787 27.4754 80.4242 28.5063C82.2698 29.5372 83.6573 30.8978 84.6009 32.5609L79.8137 35.7773C79.439 34.8564 78.9118 34.1416 78.2457 33.6193C77.5797 33.097 76.8442 32.7397 76.0533 32.5335C75.2624 32.3273 74.4853 32.2311 73.736 32.2311C72.5843 32.2311 71.5574 32.451 70.6833 32.9046C69.7952 33.3581 69.0736 33.9492 68.4908 34.6914C67.908 35.4337 67.4779 36.2721 67.1865 37.193C66.8951 38.1139 66.7563 39.021 66.7563 39.9007C66.7563 40.9316 66.9229 41.9211 67.2698 42.8695C67.6028 43.8042 68.0884 44.6426 68.699 45.3711C69.3095 46.0996 70.0588 46.6631 70.9191 47.0892C71.7933 47.5153 72.7647 47.7215 73.847 47.7215C74.5963 47.7215 75.3734 47.6115 76.1504 47.3779C76.9275 47.1442 77.649 46.7731 78.3151 46.237C78.9811 45.701 79.4945 45 79.8414 44.1341L84.934 47.0342C84.3789 48.285 83.5047 49.3572 82.2975 50.2506C81.0903 51.144 79.7304 51.8312 78.2179 52.2985C76.7055 52.7658 75.193 52.9995 73.6944 52.9995C71.7517 52.9995 69.9895 52.6146 68.3798 51.8587C66.7702 51.1027 65.3687 50.0856 64.1893 48.8211C63.0098 47.5565 62.094 46.1271 61.4557 44.5464C60.8035 42.9795 60.4844 41.3714 60.4844 39.722Z" fill="#FDFDFD"/>
<path d="M108.896 32.3411H100.751V52.8209H94.5619V32.3411H86.375V27.1318H108.91V32.3411H108.896Z" fill="#FDFDFD"/>
<path d="M116.794 27.1318H123.441L132.724 52.8209H126.383L124.565 47.0618H115.712L113.88 52.8209H107.539L116.794 27.1318ZM123.288 43.0208L120.152 33.1108L117.003 43.0208H123.288Z" fill="#FDFDFD"/>
<path d="M145.171 52.8213V50.5396C143.59 50.4159 142.091 50.0861 140.676 49.5225C139.26 48.9727 138.011 48.203 136.915 47.1996C135.819 46.21 134.959 45.0417 134.334 43.6947C133.71 42.3478 133.391 40.8358 133.391 39.1727C133.391 37.4408 133.724 35.874 134.39 34.4995C135.056 33.125 135.944 31.9567 137.054 30.9946C138.164 30.0324 139.413 29.2764 140.814 28.7266C142.216 28.1769 143.659 27.8607 145.171 27.7645V25.7715H151.027V27.7645C152.54 27.8607 153.997 28.1906 155.384 28.7404C156.786 29.2902 158.034 30.0462 159.158 31.0083C160.282 31.9567 161.17 33.125 161.823 34.4995C162.475 35.874 162.808 37.4271 162.808 39.1727C162.808 40.8633 162.489 42.3753 161.85 43.7085C161.212 45.0417 160.338 46.2238 159.228 47.2134C158.118 48.2168 156.869 48.9865 155.454 49.5363C154.038 50.0723 152.567 50.4159 151.041 50.5259V52.8075H145.171V52.8213ZM145.324 45.8114V32.534C144.297 32.6577 143.34 32.9875 142.452 33.5098C141.577 34.0459 140.87 34.7744 140.356 35.7228C139.843 36.6574 139.579 37.8257 139.579 39.2002C139.579 40.2173 139.732 41.1245 140.051 41.9079C140.37 42.7051 140.787 43.3786 141.328 43.9146C141.869 44.4507 142.479 44.8905 143.173 45.2204C143.881 45.5365 144.589 45.7289 145.324 45.8114ZM150.874 45.8114C151.887 45.6602 152.817 45.3441 153.691 44.8356C154.565 44.327 155.259 43.5985 155.8 42.6501C156.342 41.7017 156.605 40.5472 156.605 39.2002C156.605 38.1831 156.453 37.2759 156.147 36.4925C155.842 35.6953 155.426 35.0218 154.898 34.472C154.371 33.9222 153.747 33.4823 153.053 33.1662C152.345 32.8501 151.624 32.644 150.861 32.5477V45.8114H150.874Z" fill="#FDFDFD"/>
<path d="M177.363 52.8213V50.5396C175.781 50.4159 174.282 50.0861 172.867 49.5225C171.452 48.9727 170.203 48.203 169.107 47.1996C168.01 46.21 167.15 45.0417 166.526 43.6947C165.901 42.3478 165.582 40.8358 165.582 39.1727C165.582 37.4408 165.915 35.874 166.581 34.4995C167.247 33.125 168.135 31.9567 169.245 30.9946C170.355 30.0324 171.604 29.2764 173.006 28.7266C174.407 28.1769 175.85 27.8607 177.363 27.7645V25.7715H183.218V27.7645C184.731 27.8607 186.188 28.1906 187.576 28.7404C188.977 29.2902 190.226 30.0462 191.35 31.0083C192.474 31.9567 193.362 33.125 194.014 34.4995C194.666 35.874 194.999 37.4271 194.999 39.1727C194.999 40.8633 194.68 42.3753 194.042 43.7085C193.403 45.0417 192.529 46.2238 191.419 47.2134C190.309 48.2168 189.06 48.9865 187.645 49.5363C186.23 50.0723 184.759 50.4159 183.232 50.5259V52.8075H177.363V52.8213ZM177.515 45.8114V32.534C176.489 32.6577 175.531 32.9875 174.643 33.5098C173.769 34.0459 173.061 34.7744 172.548 35.7228C172.034 36.6574 171.771 37.8257 171.771 39.2002C171.771 40.2173 171.923 41.1245 172.243 41.9079C172.562 42.7051 172.978 43.3786 173.519 43.9146C174.06 44.4507 174.671 44.8905 175.365 45.2204C176.072 45.5365 176.78 45.7289 177.515 45.8114ZM183.066 45.8114C184.079 45.6602 185.008 45.3441 185.883 44.8356C186.757 44.327 187.451 43.5985 187.992 42.6501C188.533 41.7017 188.797 40.5472 188.797 39.2002C188.797 38.1831 188.644 37.2759 188.339 36.4925C188.033 35.6953 187.617 35.0218 187.09 34.472C186.563 33.9222 185.938 33.4823 185.244 33.1662C184.537 32.8501 183.815 32.644 183.052 32.5477V45.8114H183.066Z" fill="#FDFDFD"/>
<path d="M60.2344 8.35686C60.2344 7.31225 60.4286 6.30894 60.8172 5.31931C61.2057 4.32969 61.7746 3.43626 62.51 2.63906C63.2593 1.84186 64.1613 1.19582 65.2297 0.714756C66.2982 0.233688 67.5054 0 68.8514 0C70.461 0 71.8486 0.34369 73.0281 1.01718C74.2075 1.69068 75.0679 2.57032 75.6229 3.65616L73.042 5.37426C72.7506 4.742 72.362 4.24716 71.8902 3.8898C71.4185 3.53243 70.905 3.27127 70.35 3.10634C69.795 2.95514 69.2677 2.8727 68.7681 2.8727C67.9078 2.8727 67.1724 3.03762 66.5341 3.36749C65.8958 3.69737 65.3824 4.13722 64.9522 4.67326C64.5359 5.20931 64.2168 5.80033 64.0087 6.47383C63.8005 7.13358 63.6895 7.8071 63.6895 8.4806C63.6895 9.20907 63.8144 9.91002 64.0642 10.5973C64.3139 11.2845 64.6608 11.8893 65.1049 12.4116C65.5628 12.9339 66.1039 13.3599 66.7284 13.6623C67.3667 13.9647 68.0605 14.1297 68.8098 14.1297C69.3371 14.1297 69.8782 14.0472 70.4333 13.8685C70.9883 13.6898 71.5156 13.415 71.9874 13.0439C72.4592 12.6728 72.8477 12.1642 73.1391 11.5594L75.9004 13.1126C75.5396 13.951 74.9707 14.652 74.1937 15.243C73.4166 15.8203 72.5424 16.2739 71.585 16.5625C70.6275 16.8649 69.6701 17.0161 68.7126 17.0161C67.4638 17.0161 66.326 16.7687 65.2991 16.2739C64.2723 15.7791 63.3842 15.1193 62.6211 14.2946C61.8717 13.4699 61.2751 12.5353 60.8588 11.5045C60.4425 10.4461 60.2344 9.40146 60.2344 8.35686Z" fill="#FDFDFD"/>
<path d="M92.9681 16.879V5.86942L88.4584 14.0613H86.5574L82.0754 5.86942V16.879H78.6758V0.110352H82.3391L87.4871 9.63548L92.6906 0.110352H96.34V16.879H92.9681Z" fill="#FDFDFD"/>
<path d="M105.222 0.110352H108.677L115.102 16.879H111.605L110.148 12.7006H103.723L102.266 16.879H98.7695L105.222 0.110352ZM109.357 10.4052L106.956 3.4916L104.542 10.4052H109.357Z" fill="#FDFDFD"/>
<path d="M117.516 16.879V0.110352H124.925C125.73 0.110352 126.48 0.261581 127.159 0.577711C127.839 0.893842 128.422 1.31992 128.922 1.85597C129.421 2.39201 129.796 2.98304 130.073 3.65653C130.351 4.31628 130.476 4.98975 130.476 5.69073C130.476 6.62538 130.254 7.51881 129.81 8.37098C129.366 9.22316 128.741 9.92417 127.923 10.4602C127.104 10.9963 126.16 11.2574 125.078 11.2574H120.915V16.879H117.516ZM120.915 8.3985H124.856C125.286 8.3985 125.661 8.28856 125.994 8.06864C126.327 7.84872 126.577 7.53258 126.771 7.10649C126.965 6.69414 127.048 6.21302 127.048 5.67697C127.048 5.09969 126.937 4.60496 126.715 4.20636C126.493 3.80776 126.202 3.49157 125.855 3.28539C125.508 3.07922 125.12 2.96929 124.703 2.96929H120.915V8.3985Z" fill="#FDFDFD"/>
<path d="M146.404 2.96929H140.839V16.879H137.467V2.96929H131.848V0.110352H146.404V2.96929Z" fill="#FDFDFD"/>
<path d="M45.1665 1.25121L23.8668 13.4291C23.5615 13.6078 23.1869 13.6078 22.8816 13.4291L1.58187 1.25121C0.929693 0.880097 0.111008 1.3474 0.111008 2.08962L0 39.5442C0 39.8878 0.180389 40.2176 0.485662 40.3826L21.5911 52.4506C22.2433 52.8217 23.062 52.3544 23.062 51.6121L23.0897 40.6163C23.0897 40.2727 22.9093 39.9427 22.6041 39.7778L12.1554 33.7989C11.8501 33.6202 11.6697 33.3041 11.6697 32.9604L11.6975 21.9646C11.6975 21.2224 12.5162 20.7551 13.1684 21.1262L22.8816 26.6516C23.1869 26.8302 23.5615 26.8302 23.8529 26.6516L33.5661 21.1262C34.2183 20.7551 35.037 21.2224 35.037 21.9646L35.1064 45.0834C35.1064 45.8256 35.925 46.2929 36.5772 45.9218L46.2488 40.3963C46.5541 40.2177 46.7345 39.9016 46.7345 39.5579L46.6235 2.10338C46.6373 1.34741 45.8187 0.880097 45.1665 1.25121Z" fill="#FDFDFD"/>
<path d="M22.6197 39.7915L12.171 33.8125C11.8658 33.6339 11.6854 33.3177 11.6854 32.9741L11.7131 21.9783C11.7131 21.2361 12.5318 20.7687 13.184 21.1398L22.8972 26.6652C23.0498 26.7477 23.2163 26.789 23.3829 26.789V13.5665C23.2163 13.5665 23.0498 13.5252 22.8972 13.4427L1.59749 1.26488C0.945318 0.893769 0.126633 1.36107 0.126633 2.10329L0.015625 39.5578C0.015625 39.9015 0.196014 40.2313 0.501287 40.3963L21.6067 52.4642C22.2589 52.8353 23.0776 52.368 23.0776 51.6258L23.1053 40.63C23.1192 40.2864 22.925 39.9564 22.6197 39.7915Z" fill="#FDFDFD"/>
</svg>
